Full Credits To Feel Free :)

 ######## ######## ######## ##          ######## ########  ######## ######## 
 ##       ##       ##       ##          ##       ##     ## ##       ##       
 ##       ##       ##       ##          ##       ##     ## ##       ##       
 ######   ######   ######   ##          ######   ########  ######   ######   
 ##       ##       ##       ##          ##       ##   ##   ##       ##       
 ##       ##       ##       ##          ##       ##    ##  ##       ##       
 ##       ######## ######## ########    ##       ##     ## ######## ########


Genre:Action | Thriller
 Language:English
 IMDb: 
http://www.imdb.com/title/tt1520399/
 Source:BluRay.1080p.DTS.x264-CHD Thanks!

 Format : AVI
 Format/Info : Audio Video Interleave
 File size : 1.84 GiB
 Duration : 1h 25mn
 Overall bit rate : 3 082 Kbps

 Video
 ID : 0
 Format : MPEG-4 Visual
 Format profile : Advanced Simple@L5
 Format settings, BVOP : Yes
 Format settings, QPel : No
 Format settings, GMC : No warppoints
 Format settings, Matrix : Default (H.263)
 Codec ID : XVID
 Codec ID/Hint : XviD
 Duration : 1h 25mn
 Bit rate : 2 625 Kbps
 Width : 1 280 pixels
 Height : 536 pixels
 Display aspect ratio : 2.35:1
 Frame rate : 24.000 fps
 Color space : YUV
 Chroma subsampling : 4:2:0
 Bit depth : 8 bits
 Scan type : Progressive
 Bits/(Pixel*Frame) : 0.159
 Stream size : 1.56 GiB (85%)
 Writing library : XviD 1.2.1 (UTC 2008-12-04)

 Audio
 ID : 1
 Format : AC-3
 Format/Info : Audio Coding 3
 Mode extension : CM (complete main)
 Codec ID : 2000
 Duration : 1h 25mn
 Bit rate mode : Constant
 Bit rate : 448 Kbps
 Channel(s) : 6 channels
 Channel positions : Front: L C R, Side: L R, LFE
 Sampling rate : 48.0 KHz
 Bit depth : 16 bits
 Stream size : 273 MiB (15%)
 Alignment : Aligned on interleaves
 Interleave, duration : 42 ms (1.00 video frame)
 Interleave, preload duration : 512 ms


 Plot:
 A world-renowned spiritual leader arrives in the Asian nation of Purma to give a teaching to the faithful..





Greets:

 INK,CRYS,IMAGINE,LKRG,FXG,3Li,FLAWL3SS,TA,iLLUSiON,ViSiON,DTRG 
 SAFCuk009,LU,TheFalcon007,MYSTiC,PrisM,Noir,WBZ,LAP,Rx,Kingdom,SAFCuk009+Fabreezy,
 HDLiTE,TWiZTED,ExtraTorrentRG.ELEKTRI4KA,MAGNAT,CM8
 And to all the other p2p grps past and present






==================================                                          
http://thepiratebay.org/user/hiest
==================================






Screenshots:
 
http://www.pix2links.com/images/64759618439816053775.png
 
http://www.pix2links.com/images/72437095990557464392.png
 
http://www.pix2links.com/images/97411313342784824184.png
 
http://www.pix2links.com/images/93214360123745910207.png
 
http://www.pix2links.com/images/36086802149859168084.png
 
http://www.pix2links.com/images/15256947075644420234.png


Full Credits To Feel Free :)

 ######## ######## ######## ##          ######## ########  ######## ######## 
 ##       ##       ##       ##          ##       ##     ## ##       ##       
 ##       ##       ##       ##          ##       ##     ## ##       ##       
 ######   ######   ######   ##          ######   ########  ######   ######   
 ##       ##       ##       ##          ##       ##   ##   ##       ##       
 ##       ##       ##       ##          ##       ##    ##  ##       ##       
 ##       ######## ######## ########    ##       ##     ## ######## ########